<svg xmlns="http://www.w3.org/2000/svg" xmlns:xlink="http://www.w3.org/1999/xlink" width="500" zoomAndPan="magnify" viewBox="0 0 375 374.999991" height="500" preserveAspectRatio="xMidYMid meet" version="1.0"><defs><g/><clipPath id="27fc674ca5"><path d="M 156 69.003906 L 186 69.003906 L 186 171 L 156 171 Z M 156 69.003906 " clip-rule="nonzero"/></clipPath><clipPath id="8b10505f41"><rect x="0" width="168" y="0" height="44"/></clipPath><clipPath id="d1b16e01d1"><rect x="0" width="82" y="0" height="49"/></clipPath></defs><rect x="-37.5" width="450" fill="#ffffff" y="-37.499999" height="449.999989" fill-opacity="1"/><rect x="-37.5" width="450" fill="#ffffff" y="-37.499999" height="449.999989" fill-opacity="1"/><path fill="#2f3335" d="M 137.433594 155.714844 C 146.636719 154.824219 153.5625 141.613281 153.660156 130.238281 C 107.40625 146.214844 102.558594 131.078125 111.164062 124.546875 C 123.679688 115 145.992188 104.90625 163.703125 101.691406 C 164.394531 97.488281 165.136719 93.332031 165.878906 89.125 C 146.191406 92.34375 126.054688 98.527344 109.976562 107.578125 C 75.746094 126.773438 73.519531 161.945312 137.484375 155.714844 Z M 137.433594 155.714844 " fill-opacity="1" fill-rule="nonzero"/><path fill="#2f3335" d="M 117.792969 199.890625 C 107.902344 210.277344 112.203125 219.726562 130.160156 221.953125 C 135.207031 222.597656 142.132812 222.546875 150.199219 221.855469 L 150.199219 221.507812 C 150.496094 216.464844 150.792969 211.464844 151.1875 206.46875 C 145.792969 207.261719 140.550781 207.90625 135.652344 208.351562 C 130.261719 208.84375 129.421875 205.53125 133.03125 202.609375 C 149.753906 189.054688 175.824219 175.453125 197.738281 172.929688 C 201.199219 165.015625 196.203125 155.566406 184.578125 159.621094 C 168.15625 165.359375 129.125 187.96875 117.792969 199.839844 Z M 117.792969 199.890625 " fill-opacity="1" fill-rule="nonzero"/><path fill="#2f3335" d="M 218.316406 132.460938 C 222.523438 129.296875 226.976562 126.574219 230.980469 123.410156 C 252.054688 106.6875 241.816406 93.085938 218.417969 88.484375 C 209.5625 86.753906 198.828125 86.207031 187.300781 86.800781 C 186.558594 90.90625 185.816406 95.0625 185.125 99.21875 C 236.175781 95.804688 244.191406 115.347656 182.253906 139.4375 C 179.433594 140.527344 179.632812 149.429688 183.789062 149.875 C 293.5625 161.550781 234.199219 189.453125 173.84375 202.363281 C 173.496094 207.90625 173.25 213.394531 173.050781 218.9375 C 203.425781 213.792969 238.5 203.304688 252.007812 190.640625 C 261.753906 181.488281 266.253906 167.4375 259.378906 157.246094 C 252.898438 147.699219 246.761719 147.601562 220.445312 139.386719 C 216.238281 138.054688 214.804688 135.183594 218.367188 132.460938 Z M 218.316406 132.460938 " fill-opacity="1" fill-rule="nonzero"/><path fill="#2f3335" d="M 155.195312 190.789062 C 154.054688 202.019531 153.363281 210.378906 152.769531 221.65625 C 152.769531 223.488281 152.71875 225.21875 152.769531 226.753906 C 152.96875 240.703125 170.183594 245.402344 170.132812 241.050781 C 169.886719 220.964844 171.125 202.660156 172.558594 182.574219 C 166.570312 185 160.683594 187.871094 155.195312 190.835938 Z M 155.195312 190.789062 " fill-opacity="1" fill-rule="nonzero"/><g clip-path="url(#27fc674ca5)"><path fill="#2f3335" d="M 172.457031 69.042969 C 165.929688 99.121094 160.488281 140.03125 156.828125 170.503906 C 163.011719 167.140625 168.898438 164.125 173.792969 161.796875 C 175.230469 144.929688 180.671875 108.371094 184.875 85.167969 C 186.359375 77.054688 181.808594 69.4375 172.410156 69.042969 Z M 172.457031 69.042969 " fill-opacity="1" fill-rule="nonzero"/></g><g transform="matrix(1, 0, 0, 1, 57, 262)"><g clip-path="url(#8b10505f41)"><g fill="#2f3335" fill-opacity="1"><g transform="translate(1.105891, 31.978079)"><g><path d="M 19.1875 -13.890625 C 20.46875 -13.398438 21.503906 -12.628906 22.296875 -11.578125 C 23.085938 -10.523438 23.484375 -9.160156 23.484375 -7.484375 C 23.484375 -5.878906 23.125 -4.519531 22.40625 -3.40625 C 21.6875 -2.289062 20.710938 -1.441406 19.484375 -0.859375 C 18.253906 -0.285156 16.875 0 15.34375 0 L 2.703125 0 L 2.703125 -27.40625 L 14.296875 -27.40625 C 15.847656 -27.40625 17.25 -27.109375 18.5 -26.515625 C 19.75 -25.921875 20.738281 -25.050781 21.46875 -23.90625 C 22.195312 -22.769531 22.5625 -21.394531 22.5625 -19.78125 C 22.5625 -18.351562 22.253906 -17.148438 21.640625 -16.171875 C 21.035156 -15.191406 20.21875 -14.429688 19.1875 -13.890625 Z M 16.53125 -19.140625 C 16.53125 -19.960938 16.238281 -20.65625 15.65625 -21.21875 C 15.082031 -21.78125 14.382812 -22.0625 13.5625 -22.0625 L 8.71875 -22.0625 L 8.71875 -16.171875 L 13.5625 -16.171875 C 14.382812 -16.171875 15.082031 -16.46875 15.65625 -17.0625 C 16.238281 -17.65625 16.53125 -18.347656 16.53125 -19.140625 Z M 14.484375 -5.34375 C 15.335938 -5.34375 16.046875 -5.625 16.609375 -6.1875 C 17.171875 -6.75 17.453125 -7.441406 17.453125 -8.265625 C 17.453125 -9.054688 17.171875 -9.75 16.609375 -10.34375 C 16.046875 -10.9375 15.335938 -11.234375 14.484375 -11.234375 L 8.71875 -11.234375 L 8.71875 -5.34375 Z M 14.484375 -5.34375 "/></g></g></g><g fill="#2f3335" fill-opacity="1"><g transform="translate(29.378792, 31.978079)"><g><path d="M 26.59375 -27.40625 L 33.078125 -27.40625 L 33.078125 0 L 27.046875 0 L 27.046875 -16.3125 L 19.59375 0 L 16.125 0 L 8.71875 -16.359375 L 8.71875 0 L 2.703125 0 L 2.703125 -27.40625 L 9.234375 -27.40625 L 17.859375 -8.453125 Z M 26.59375 -27.40625 "/></g></g></g><g fill="#2f3335" fill-opacity="1"><g transform="translate(68.613242, 31.978079)"><g><path d="M 11.140625 0.359375 C 8.734375 0.359375 6.617188 -0.234375 4.796875 -1.421875 C 2.972656 -2.609375 1.617188 -4.050781 0.734375 -5.75 L 5.703125 -8.859375 C 6.222656 -7.796875 6.953125 -6.9375 7.890625 -6.28125 C 8.835938 -5.625 9.9375 -5.296875 11.1875 -5.296875 C 12.257812 -5.296875 13.09375 -5.523438 13.6875 -5.984375 C 14.28125 -6.441406 14.578125 -7.050781 14.578125 -7.8125 C 14.578125 -8.601562 14.269531 -9.242188 13.65625 -9.734375 C 13.050781 -10.222656 12.269531 -10.632812 11.3125 -10.96875 C 10.351562 -11.300781 9.332031 -11.65625 8.25 -12.03125 C 7.164062 -12.414062 6.144531 -12.910156 5.1875 -13.515625 C 4.226562 -14.128906 3.441406 -14.921875 2.828125 -15.890625 C 2.222656 -16.867188 1.921875 -18.132812 1.921875 -19.6875 C 1.921875 -21.519531 2.347656 -23.03125 3.203125 -24.21875 C 4.054688 -25.40625 5.160156 -26.296875 6.515625 -26.890625 C 7.867188 -27.484375 9.257812 -27.78125 10.6875 -27.78125 C 12.394531 -27.78125 13.976562 -27.421875 15.4375 -26.703125 C 16.90625 -25.984375 18.140625 -25.046875 19.140625 -23.890625 L 15.125 -20.0625 C 14.445312 -20.820312 13.726562 -21.40625 12.96875 -21.8125 C 12.207031 -22.226562 11.429688 -22.4375 10.640625 -22.4375 C 9.910156 -22.4375 9.285156 -22.25 8.765625 -21.875 C 8.253906 -21.507812 8 -20.929688 8 -20.140625 C 8 -19.347656 8.300781 -18.722656 8.90625 -18.265625 C 9.519531 -17.816406 10.304688 -17.421875 11.265625 -17.078125 C 12.222656 -16.742188 13.234375 -16.378906 14.296875 -15.984375 C 15.359375 -15.585938 16.367188 -15.070312 17.328125 -14.4375 C 18.296875 -13.800781 19.082031 -12.957031 19.6875 -11.90625 C 20.300781 -10.851562 20.609375 -9.472656 20.609375 -7.765625 C 20.609375 -6.054688 20.171875 -4.59375 19.296875 -3.375 C 18.429688 -2.15625 17.28125 -1.226562 15.84375 -0.59375 C 14.414062 0.0390625 12.847656 0.359375 11.140625 0.359375 Z M 11.140625 0.359375 "/></g></g></g><g fill="#2f3335" fill-opacity="1"><g transform="translate(93.734702, 31.978079)"><g><path d="M 15.765625 0.359375 C 13.816406 0.359375 11.992188 -0.00390625 10.296875 -0.734375 C 8.609375 -1.460938 7.117188 -2.472656 5.828125 -3.765625 C 4.535156 -5.054688 3.519531 -6.546875 2.78125 -8.234375 C 2.050781 -9.929688 1.6875 -11.753906 1.6875 -13.703125 C 1.6875 -15.648438 2.050781 -17.46875 2.78125 -19.15625 C 3.519531 -20.851562 4.535156 -22.347656 5.828125 -23.640625 C 7.117188 -24.929688 8.609375 -25.941406 10.296875 -26.671875 C 11.992188 -27.410156 13.816406 -27.78125 15.765625 -27.78125 C 18.472656 -27.78125 20.9375 -27.085938 23.15625 -25.703125 C 25.382812 -24.316406 27.078125 -22.492188 28.234375 -20.234375 L 23.03125 -17.546875 C 22.351562 -18.847656 21.375 -19.894531 20.09375 -20.6875 C 18.820312 -21.476562 17.378906 -21.875 15.765625 -21.875 C 14.242188 -21.875 12.863281 -21.515625 11.625 -20.796875 C 10.394531 -20.085938 9.421875 -19.113281 8.703125 -17.875 C 7.984375 -16.644531 7.625 -15.253906 7.625 -13.703125 C 7.625 -12.148438 7.984375 -10.753906 8.703125 -9.515625 C 9.421875 -8.285156 10.394531 -7.3125 11.625 -6.59375 C 12.863281 -5.882812 14.242188 -5.53125 15.765625 -5.53125 C 17.378906 -5.53125 18.820312 -5.925781 20.09375 -6.71875 C 21.375 -7.507812 22.351562 -8.5625 23.03125 -9.875 L 28.234375 -7.171875 C 27.078125 -4.953125 25.382812 -3.140625 23.15625 -1.734375 C 20.9375 -0.335938 18.472656 0.359375 15.765625 0.359375 Z M 15.765625 0.359375 "/></g></g></g><g fill="#2f3335" fill-opacity="1"><g transform="translate(126.620592, 31.978079)"><g><path d="M 19.421875 -22.109375 L 8.953125 -22.109375 L 8.953125 -16.359375 L 17.90625 -16.359375 L 17.90625 -11.0625 L 8.953125 -11.0625 L 8.953125 -5.296875 L 19.421875 -5.296875 L 19.421875 0 L 2.921875 0 L 2.921875 -27.40625 L 19.421875 -27.40625 Z M 19.421875 -22.109375 "/></g></g></g><g fill="#2f3335" fill-opacity="1"><g transform="translate(151.376669, 31.978079)"><g><path d="M 6.171875 0.359375 C 5.285156 0.359375 4.515625 0.0351562 3.859375 -0.609375 C 3.203125 -1.265625 2.875 -2.050781 2.875 -2.96875 C 2.875 -3.882812 3.203125 -4.664062 3.859375 -5.3125 C 4.515625 -5.96875 5.285156 -6.296875 6.171875 -6.296875 C 7.078125 -6.296875 7.863281 -5.96875 8.53125 -5.3125 C 9.207031 -4.664062 9.546875 -3.882812 9.546875 -2.96875 C 9.546875 -2.050781 9.207031 -1.265625 8.53125 -0.609375 C 7.863281 0.0351562 7.078125 0.359375 6.171875 0.359375 Z M 6.171875 0.359375 "/></g></g></g></g></g><g transform="matrix(1, 0, 0, 1, 221, 257)"><g clip-path="url(#d1b16e01d1)"><g fill="#2f3335" fill-opacity="1"><g transform="translate(1.68423, 38.026872)"><g><path d="M 9.28125 0 L 5.296875 0 L 5.296875 -16.421875 L 1.078125 -16.421875 L 1.078125 -20.296875 L 5.296875 -20.296875 L 5.296875 -25.46875 L 9.28125 -25.46875 L 9.28125 -20.296875 L 14 -20.296875 L 14 -16.421875 L 9.28125 -16.421875 Z M 9.28125 0 "/></g></g></g><g fill="#2f3335" fill-opacity="1"><g transform="translate(15.911345, 38.026872)"><g><path d="M 20.21875 -2.671875 L 20.171875 -2.671875 C 19.347656 -1.867188 18.210938 -1.15625 16.765625 -0.53125 C 15.328125 0.0820312 13.820312 0.390625 12.25 0.390625 C 10.132812 0.390625 8.269531 -0.0507812 6.65625 -0.9375 C 5.050781 -1.832031 3.796875 -3.054688 2.890625 -4.609375 C 1.992188 -6.171875 1.546875 -7.945312 1.546875 -9.9375 C 1.546875 -12.207031 2.019531 -14.144531 2.96875 -15.75 C 3.925781 -17.363281 5.191406 -18.601562 6.765625 -19.46875 C 8.335938 -20.332031 10.050781 -20.765625 11.90625 -20.765625 C 13.601562 -20.765625 15.144531 -20.34375 16.53125 -19.5 C 17.925781 -18.664062 19.035156 -17.515625 19.859375 -16.046875 C 20.691406 -14.578125 21.109375 -12.863281 21.109375 -10.90625 L 21.0625 -9.203125 L 5.53125 -9.203125 C 5.757812 -7.367188 6.507812 -5.914062 7.78125 -4.84375 C 9.0625 -3.78125 10.679688 -3.25 12.640625 -3.25 C 14.054688 -3.25 15.203125 -3.507812 16.078125 -4.03125 C 16.953125 -4.5625 17.675781 -5.070312 18.25 -5.5625 Z M 11.90625 -17.09375 C 10.382812 -17.09375 9.054688 -16.734375 7.921875 -16.015625 C 6.785156 -15.304688 6.039062 -14.09375 5.6875 -12.375 L 17.046875 -12.375 L 17.046875 -12.640625 C 16.972656 -13.515625 16.679688 -14.285156 16.171875 -14.953125 C 15.671875 -15.628906 15.046875 -16.15625 14.296875 -16.53125 C 13.554688 -16.90625 12.757812 -17.09375 11.90625 -17.09375 Z M 11.90625 -17.09375 "/></g></g></g><g fill="#2f3335" fill-opacity="1"><g transform="translate(37.947947, 38.026872)"><g><path d="M 5.328125 -10.171875 C 5.328125 -8.828125 5.628906 -7.632812 6.234375 -6.59375 C 6.847656 -5.550781 7.648438 -4.722656 8.640625 -4.109375 C 9.628906 -3.503906 10.691406 -3.203125 11.828125 -3.203125 C 13.117188 -3.203125 14.238281 -3.535156 15.1875 -4.203125 C 16.144531 -4.878906 16.921875 -5.578125 17.515625 -6.296875 L 19.71875 -3.59375 C 19.226562 -2.894531 18.554688 -2.242188 17.703125 -1.640625 C 16.847656 -1.035156 15.878906 -0.546875 14.796875 -0.171875 C 13.722656 0.203125 12.59375 0.390625 11.40625 0.390625 C 9.550781 0.390625 7.875 -0.0703125 6.375 -1 C 4.882812 -1.925781 3.707031 -3.1875 2.84375 -4.78125 C 1.976562 -6.382812 1.546875 -8.179688 1.546875 -10.171875 C 1.546875 -12.179688 1.976562 -13.976562 2.84375 -15.5625 C 3.707031 -17.144531 4.882812 -18.398438 6.375 -19.328125 C 7.875 -20.253906 9.550781 -20.71875 11.40625 -20.71875 C 13.28125 -20.71875 14.953125 -20.335938 16.421875 -19.578125 C 17.890625 -18.816406 18.988281 -17.832031 19.71875 -16.625 L 17.515625 -13.921875 C 16.921875 -14.796875 16.078125 -15.546875 14.984375 -16.171875 C 13.890625 -16.804688 12.828125 -17.125 11.796875 -17.125 C 10.578125 -17.125 9.476562 -16.820312 8.5 -16.21875 C 7.519531 -15.613281 6.742188 -14.785156 6.171875 -13.734375 C 5.609375 -12.691406 5.328125 -11.503906 5.328125 -10.171875 Z M 5.328125 -10.171875 "/></g></g></g><g fill="#2f3335" fill-opacity="1"><g transform="translate(58.012848, 38.026872)"><g><path d="M 13.40625 -20.71875 C 15.238281 -20.71875 16.65625 -20.34375 17.65625 -19.59375 C 18.664062 -18.851562 19.367188 -17.847656 19.765625 -16.578125 C 20.171875 -15.316406 20.375 -13.914062 20.375 -12.375 L 20.375 0 L 16.390625 0 L 16.390625 -12.09375 C 16.390625 -13.070312 16.257812 -13.945312 16 -14.71875 C 15.738281 -15.5 15.300781 -16.109375 14.6875 -16.546875 C 14.070312 -16.984375 13.207031 -17.164062 12.09375 -17.09375 C 11.0625 -17.09375 10.144531 -16.867188 9.34375 -16.421875 C 8.550781 -15.984375 7.921875 -15.40625 7.453125 -14.6875 C 6.992188 -13.96875 6.765625 -13.171875 6.765625 -12.296875 L 6.765625 0 L 2.78125 0 L 2.78125 -28.609375 L 6.765625 -28.609375 L 6.765625 -17.09375 C 7.378906 -18.039062 8.28125 -18.878906 9.46875 -19.609375 C 10.65625 -20.347656 11.96875 -20.71875 13.40625 -20.71875 Z M 13.40625 -20.71875 "/></g></g></g></g></g></svg>