<svg xmlns="http://www.w3.org/2000/svg" xmlns:xlink="http://www.w3.org/1999/xlink" width="500" zoomAndPan="magnify" viewBox="0 0 375 374.999991" height="500" preserveAspectRatio="xMidYMid meet" version="1.0"><defs><g/><clipPath id="d0d0e5e7e7"><path d="M 158 25.574219 L 197 25.574219 L 197 165 L 158 165 Z M 158 25.574219 " clip-rule="nonzero"/></clipPath><clipPath id="4bf3267b52"><rect x="0" width="230" y="0" height="59"/></clipPath><clipPath id="6d3b0b4e41"><rect x="0" width="111" y="0" height="67"/></clipPath></defs><path fill="#2f3335" d="M 131.519531 144.0625 C 144.09375 142.84375 153.558594 124.792969 153.691406 109.246094 C 90.480469 131.082031 83.855469 110.394531 95.621094 101.472656 C 112.722656 88.421875 143.214844 74.632812 167.414062 70.238281 C 168.363281 64.492188 169.375 58.8125 170.390625 53.066406 C 143.484375 57.460938 115.96875 65.910156 93.996094 78.28125 C 47.214844 104.511719 44.171875 152.578125 131.585938 144.0625 Z M 131.519531 144.0625 " fill-opacity="1" fill-rule="nonzero"/><path fill="#2f3335" d="M 104.679688 204.433594 C 91.15625 218.628906 97.039062 231.542969 121.578125 234.582031 C 128.476562 235.460938 137.941406 235.394531 148.960938 234.449219 L 148.960938 233.976562 C 149.367188 227.078125 149.769531 220.25 150.3125 213.421875 C 142.941406 214.503906 135.777344 215.382812 129.085938 215.992188 C 121.714844 216.667969 120.566406 212.140625 125.5 208.148438 C 148.351562 189.625 183.980469 171.035156 213.925781 167.585938 C 218.660156 156.769531 211.832031 143.859375 195.945312 149.402344 C 173.5 157.246094 120.160156 188.140625 104.679688 204.363281 Z M 104.679688 204.433594 " fill-opacity="1" fill-rule="nonzero"/><path fill="#2f3335" d="M 242.050781 112.289062 C 247.796875 107.960938 253.882812 104.242188 259.355469 99.917969 C 288.15625 77.066406 274.164062 58.476562 242.1875 52.1875 C 230.085938 49.820312 215.414062 49.078125 199.664062 49.890625 C 198.648438 55.5 197.632812 61.179688 196.6875 66.859375 C 266.457031 62.191406 277.40625 88.898438 192.765625 121.820312 C 188.914062 123.308594 189.183594 135.476562 194.863281 136.085938 C 344.875 152.039062 263.75 190.167969 181.273438 207.8125 C 180.800781 215.382812 180.464844 222.886719 180.191406 230.460938 C 221.703125 223.429688 269.632812 209.097656 288.089844 191.789062 C 301.40625 179.285156 307.558594 160.082031 298.160156 146.15625 C 289.304688 133.109375 280.921875 132.972656 244.957031 121.753906 C 239.210938 119.925781 237.25 116.007812 242.117188 112.289062 Z M 242.050781 112.289062 " fill-opacity="1" fill-rule="nonzero"/><path fill="#2f3335" d="M 155.789062 191.992188 C 154.234375 207.339844 153.285156 218.765625 152.476562 234.179688 C 152.476562 236.679688 152.40625 239.046875 152.476562 241.140625 C 152.746094 260.207031 176.273438 266.628906 176.203125 260.679688 C 175.867188 233.230469 177.554688 208.21875 179.515625 180.769531 C 171.335938 184.082031 163.292969 188.003906 155.789062 192.0625 Z M 155.789062 191.992188 " fill-opacity="1" fill-rule="nonzero"/><g clip-path="url(#d0d0e5e7e7)"><path fill="#2f3335" d="M 179.382812 25.621094 C 170.457031 66.722656 163.019531 122.632812 158.019531 164.273438 C 166.46875 159.679688 174.515625 155.554688 181.207031 152.378906 C 183.167969 129.324219 190.605469 79.363281 196.351562 47.65625 C 198.378906 36.570312 192.160156 26.160156 179.3125 25.621094 Z M 179.382812 25.621094 " fill-opacity="1" fill-rule="nonzero"/></g><g transform="matrix(1, 0, 0, 1, 21, 290)"><g clip-path="url(#4bf3267b52)"><g fill="#2f3335" fill-opacity="1"><g transform="translate(2.111248, 43.004142)"><g><path d="M 26.21875 -18.984375 C 27.96875 -18.316406 29.382812 -17.265625 30.46875 -15.828125 C 31.550781 -14.390625 32.09375 -12.523438 32.09375 -10.234375 C 32.09375 -8.035156 31.601562 -6.175781 30.625 -4.65625 C 29.644531 -3.132812 28.3125 -1.976562 26.625 -1.1875 C 24.945312 -0.394531 23.066406 0 20.984375 0 L 3.6875 0 L 3.6875 -37.46875 L 19.546875 -37.46875 C 21.671875 -37.46875 23.582031 -37.0625 25.28125 -36.25 C 26.988281 -35.4375 28.34375 -34.25 29.34375 -32.6875 C 30.34375 -31.125 30.84375 -29.238281 30.84375 -27.03125 C 30.84375 -25.082031 30.425781 -23.441406 29.59375 -22.109375 C 28.757812 -20.773438 27.632812 -19.734375 26.21875 -18.984375 Z M 22.609375 -26.15625 C 22.609375 -27.28125 22.210938 -28.226562 21.421875 -29 C 20.628906 -29.769531 19.671875 -30.15625 18.546875 -30.15625 L 11.921875 -30.15625 L 11.921875 -22.109375 L 18.546875 -22.109375 C 19.671875 -22.109375 20.628906 -22.515625 21.421875 -23.328125 C 22.210938 -24.140625 22.609375 -25.082031 22.609375 -26.15625 Z M 19.796875 -7.3125 C 20.960938 -7.3125 21.929688 -7.691406 22.703125 -8.453125 C 23.472656 -9.222656 23.859375 -10.171875 23.859375 -11.296875 C 23.859375 -12.378906 23.472656 -13.328125 22.703125 -14.140625 C 21.929688 -14.953125 20.960938 -15.359375 19.796875 -15.359375 L 11.921875 -15.359375 L 11.921875 -7.3125 Z M 19.796875 -7.3125 "/></g></g></g><g fill="#2f3335" fill-opacity="1"><g transform="translate(40.746661, 43.004142)"><g><path d="M 36.34375 -37.46875 L 45.203125 -37.46875 L 45.203125 0 L 36.96875 0 L 36.96875 -22.296875 L 26.78125 0 L 22.046875 0 L 11.921875 -22.359375 L 11.921875 0 L 3.6875 0 L 3.6875 -37.46875 L 12.609375 -37.46875 L 24.421875 -11.546875 Z M 36.34375 -37.46875 "/></g></g></g><g fill="#2f3335" fill-opacity="1"><g transform="translate(94.361222, 43.004142)"><g><path d="M 15.234375 0.5 C 11.941406 0.5 9.046875 -0.3125 6.546875 -1.9375 C 4.054688 -3.5625 2.207031 -5.539062 1 -7.875 L 7.8125 -12.109375 C 8.507812 -10.648438 9.503906 -9.472656 10.796875 -8.578125 C 12.085938 -7.691406 13.585938 -7.25 15.296875 -7.25 C 16.753906 -7.25 17.890625 -7.554688 18.703125 -8.171875 C 19.515625 -8.796875 19.921875 -9.628906 19.921875 -10.671875 C 19.921875 -11.753906 19.503906 -12.628906 18.671875 -13.296875 C 17.835938 -13.960938 16.765625 -14.523438 15.453125 -14.984375 C 14.140625 -15.441406 12.742188 -15.929688 11.265625 -16.453125 C 9.785156 -16.972656 8.390625 -17.648438 7.078125 -18.484375 C 5.773438 -19.316406 4.707031 -20.398438 3.875 -21.734375 C 3.039062 -23.066406 2.625 -24.789062 2.625 -26.90625 C 2.625 -29.40625 3.207031 -31.46875 4.375 -33.09375 C 5.539062 -34.71875 7.046875 -35.9375 8.890625 -36.75 C 10.742188 -37.5625 12.648438 -37.96875 14.609375 -37.96875 C 16.941406 -37.96875 19.109375 -37.476562 21.109375 -36.5 C 23.109375 -35.519531 24.789062 -34.238281 26.15625 -32.65625 L 20.671875 -27.40625 C 19.753906 -28.445312 18.773438 -29.25 17.734375 -29.8125 C 16.691406 -30.375 15.628906 -30.65625 14.546875 -30.65625 C 13.546875 -30.65625 12.691406 -30.40625 11.984375 -29.90625 C 11.273438 -29.40625 10.921875 -28.613281 10.921875 -27.53125 C 10.921875 -26.445312 11.335938 -25.59375 12.171875 -24.96875 C 13.003906 -24.351562 14.078125 -23.816406 15.390625 -23.359375 C 16.703125 -22.898438 18.085938 -22.398438 19.546875 -21.859375 C 21.003906 -21.316406 22.382812 -20.609375 23.6875 -19.734375 C 25 -18.859375 26.070312 -17.703125 26.90625 -16.265625 C 27.738281 -14.828125 28.15625 -12.941406 28.15625 -10.609375 C 28.15625 -8.285156 27.5625 -6.289062 26.375 -4.625 C 25.195312 -2.957031 23.628906 -1.6875 21.671875 -0.8125 C 19.710938 0.0625 17.566406 0.5 15.234375 0.5 Z M 15.234375 0.5 "/></g></g></g><g fill="#2f3335" fill-opacity="1"><g transform="translate(128.690137, 43.004142)"><g><path d="M 21.546875 0.5 C 18.878906 0.5 16.390625 0 14.078125 -1 C 11.765625 -2 9.722656 -3.382812 7.953125 -5.15625 C 6.191406 -6.925781 4.8125 -8.960938 3.8125 -11.265625 C 2.8125 -13.578125 2.3125 -16.066406 2.3125 -18.734375 C 2.3125 -21.398438 2.8125 -23.882812 3.8125 -26.1875 C 4.8125 -28.5 6.191406 -30.539062 7.953125 -32.3125 C 9.722656 -34.082031 11.765625 -35.46875 14.078125 -36.46875 C 16.390625 -37.46875 18.878906 -37.96875 21.546875 -37.96875 C 25.242188 -37.96875 28.613281 -37.019531 31.65625 -35.125 C 34.695312 -33.226562 37.007812 -30.738281 38.59375 -27.65625 L 31.46875 -23.984375 C 30.550781 -25.765625 29.21875 -27.195312 27.46875 -28.28125 C 25.726562 -29.363281 23.753906 -29.90625 21.546875 -29.90625 C 19.460938 -29.90625 17.578125 -29.414062 15.890625 -28.4375 C 14.203125 -27.457031 12.867188 -26.125 11.890625 -24.4375 C 10.910156 -22.757812 10.421875 -20.859375 10.421875 -18.734375 C 10.421875 -16.609375 10.910156 -14.703125 11.890625 -13.015625 C 12.867188 -11.328125 14.203125 -9.992188 15.890625 -9.015625 C 17.578125 -8.046875 19.460938 -7.5625 21.546875 -7.5625 C 23.753906 -7.5625 25.726562 -8.097656 27.46875 -9.171875 C 29.21875 -10.253906 30.550781 -11.691406 31.46875 -13.484375 L 38.59375 -9.796875 C 37.007812 -6.765625 34.695312 -4.289062 31.65625 -2.375 C 28.613281 -0.457031 25.242188 0.5 21.546875 0.5 Z M 21.546875 0.5 "/></g></g></g><g fill="#2f3335" fill-opacity="1"><g transform="translate(173.62928, 43.004142)"><g><path d="M 26.53125 -30.21875 L 12.234375 -30.21875 L 12.234375 -22.359375 L 24.484375 -22.359375 L 24.484375 -15.109375 L 12.234375 -15.109375 L 12.234375 -7.25 L 26.53125 -7.25 L 26.53125 0 L 4 0 L 4 -37.46875 L 26.53125 -37.46875 Z M 26.53125 -30.21875 "/></g></g></g><g fill="#2f3335" fill-opacity="1"><g transform="translate(207.458892, 43.004142)"><g><path d="M 8.421875 0.5 C 7.222656 0.5 6.175781 0.0507812 5.28125 -0.84375 C 4.382812 -1.738281 3.9375 -2.8125 3.9375 -4.0625 C 3.9375 -5.3125 4.382812 -6.378906 5.28125 -7.265625 C 6.175781 -8.160156 7.222656 -8.609375 8.421875 -8.609375 C 9.671875 -8.609375 10.753906 -8.160156 11.671875 -7.265625 C 12.585938 -6.378906 13.046875 -5.3125 13.046875 -4.0625 C 13.046875 -2.8125 12.585938 -1.738281 11.671875 -0.84375 C 10.753906 0.0507812 9.671875 0.5 8.421875 0.5 Z M 8.421875 0.5 "/></g></g></g></g></g><g transform="matrix(1, 0, 0, 1, 246, 282)"><g clip-path="url(#6d3b0b4e41)"><g fill="#2f3335" fill-opacity="1"><g transform="translate(2.010438, 52.437346)"><g><path d="M 12.671875 0 L 7.234375 0 L 7.234375 -22.453125 L 1.484375 -22.453125 L 1.484375 -27.734375 L 7.234375 -27.734375 L 7.234375 -34.8125 L 12.671875 -34.8125 L 12.671875 -27.734375 L 19.125 -27.734375 L 19.125 -22.453125 L 12.671875 -22.453125 Z M 12.671875 0 "/></g></g></g><g fill="#2f3335" fill-opacity="1"><g transform="translate(21.452039, 52.437346)"><g><path d="M 27.625 -3.640625 L 27.578125 -3.640625 C 26.453125 -2.546875 24.898438 -1.578125 22.921875 -0.734375 C 20.953125 0.109375 18.894531 0.53125 16.75 0.53125 C 13.863281 0.53125 11.316406 -0.0703125 9.109375 -1.28125 C 6.910156 -2.5 5.191406 -4.175781 3.953125 -6.3125 C 2.722656 -8.445312 2.109375 -10.867188 2.109375 -13.578125 C 2.109375 -16.671875 2.757812 -19.316406 4.0625 -21.515625 C 5.363281 -23.722656 7.085938 -25.414062 9.234375 -26.59375 C 11.390625 -27.78125 13.734375 -28.375 16.265625 -28.375 C 18.585938 -28.375 20.703125 -27.800781 22.609375 -26.65625 C 24.515625 -25.507812 26.03125 -23.929688 27.15625 -21.921875 C 28.28125 -19.910156 28.84375 -17.566406 28.84375 -14.890625 L 28.796875 -12.578125 L 7.546875 -12.578125 C 7.867188 -10.078125 8.898438 -8.09375 10.640625 -6.625 C 12.390625 -5.164062 14.601562 -4.4375 17.28125 -4.4375 C 19.21875 -4.4375 20.78125 -4.796875 21.96875 -5.515625 C 23.164062 -6.242188 24.15625 -6.941406 24.9375 -7.609375 Z M 16.265625 -23.34375 C 14.191406 -23.34375 12.378906 -22.859375 10.828125 -21.890625 C 9.273438 -20.921875 8.253906 -19.257812 7.765625 -16.90625 L 23.296875 -16.90625 L 23.296875 -17.28125 C 23.191406 -18.476562 22.796875 -19.53125 22.109375 -20.4375 C 21.421875 -21.351562 20.566406 -22.066406 19.546875 -22.578125 C 18.523438 -23.085938 17.429688 -23.34375 16.265625 -23.34375 Z M 16.265625 -23.34375 "/></g></g></g><g fill="#2f3335" fill-opacity="1"><g transform="translate(51.56544, 52.437346)"><g><path d="M 7.296875 -13.890625 C 7.296875 -12.054688 7.707031 -10.425781 8.53125 -9 C 9.351562 -7.582031 10.441406 -6.457031 11.796875 -5.625 C 13.160156 -4.800781 14.617188 -4.390625 16.171875 -4.390625 C 17.929688 -4.390625 19.460938 -4.84375 20.765625 -5.75 C 22.066406 -6.664062 23.125 -7.617188 23.9375 -8.609375 L 26.9375 -4.90625 C 26.269531 -3.957031 25.351562 -3.066406 24.1875 -2.234375 C 23.03125 -1.410156 21.710938 -0.742188 20.234375 -0.234375 C 18.753906 0.273438 17.203125 0.53125 15.578125 0.53125 C 13.046875 0.53125 10.757812 -0.101562 8.71875 -1.375 C 6.675781 -2.644531 5.0625 -4.367188 3.875 -6.546875 C 2.695312 -8.734375 2.109375 -11.179688 2.109375 -13.890625 C 2.109375 -16.640625 2.695312 -19.097656 3.875 -21.265625 C 5.0625 -23.429688 6.675781 -25.144531 8.71875 -26.40625 C 10.757812 -27.675781 13.046875 -28.3125 15.578125 -28.3125 C 18.148438 -28.3125 20.441406 -27.789062 22.453125 -26.75 C 24.460938 -25.71875 25.957031 -24.375 26.9375 -22.71875 L 23.9375 -19.015625 C 23.125 -20.210938 21.96875 -21.242188 20.46875 -22.109375 C 18.96875 -22.972656 17.515625 -23.40625 16.109375 -23.40625 C 14.453125 -23.40625 12.953125 -22.988281 11.609375 -22.15625 C 10.273438 -21.332031 9.222656 -20.207031 8.453125 -18.78125 C 7.679688 -17.351562 7.296875 -15.722656 7.296875 -13.890625 Z M 7.296875 -13.890625 "/></g></g></g><g fill="#2f3335" fill-opacity="1"><g transform="translate(78.984478, 52.437346)"><g><path d="M 18.328125 -28.3125 C 20.828125 -28.3125 22.765625 -27.800781 24.140625 -26.78125 C 25.515625 -25.757812 26.472656 -24.382812 27.015625 -22.65625 C 27.566406 -20.9375 27.84375 -19.019531 27.84375 -16.90625 L 27.84375 0 L 22.40625 0 L 22.40625 -16.53125 C 22.40625 -17.875 22.226562 -19.070312 21.875 -20.125 C 21.519531 -21.1875 20.921875 -22.015625 20.078125 -22.609375 C 19.234375 -23.210938 18.050781 -23.457031 16.53125 -23.34375 C 15.125 -23.34375 13.875 -23.039062 12.78125 -22.4375 C 11.6875 -21.84375 10.820312 -21.050781 10.1875 -20.0625 C 9.5625 -19.082031 9.25 -17.992188 9.25 -16.796875 L 9.25 0 L 3.796875 0 L 3.796875 -39.09375 L 9.25 -39.09375 L 9.25 -23.34375 C 10.09375 -24.644531 11.320312 -25.796875 12.9375 -26.796875 C 14.5625 -27.804688 16.359375 -28.3125 18.328125 -28.3125 Z M 18.328125 -28.3125 "/></g></g></g></g></g></svg>